<?xml version="1.0" encoding="UTF-8"?>
<!DOCTYPE svg PUBLIC "-//W3C//DTD SVG 1.1//EN" "http://www.w3.org/Graphics/SVG/1.1/DTD/svg11.dtd">
<svg xmlns="http://www.w3.org/2000/svg" version="1.1" width="584px" height="411px" style="shape-rendering:geometricPrecision; text-rendering:geometricPrecision; image-rendering:optimizeQuality; fill-rule:evenodd; clip-rule:evenodd" xmlns:xlink="http://www.w3.org/1999/xlink">
<g><path style="opacity:1" fill="#fdfeff" d="M -0.5,-0.5 C 194.167,-0.5 388.833,-0.5 583.5,-0.5C 583.5,136.5 583.5,273.5 583.5,410.5C 388.833,410.5 194.167,410.5 -0.5,410.5C -0.5,273.5 -0.5,136.5 -0.5,-0.5 Z"/></g>
<g><path style="opacity:1" fill="#0000ff" d="M 239.5,2.5 C 324.9,-5.64508 406.9,6.85492 485.5,40C 517.316,54.48 543.816,75.6467 565,103.5C 585.686,139.833 582.352,173.833 555,205.5C 535.898,225.599 513.731,241.432 488.5,253C 461.809,262.841 434.809,271.841 407.5,280C 356.672,290.346 305.339,294.012 253.5,291C 190.213,287.513 130.213,271.846 73.5,244C 51.9056,231.736 33.4056,215.902 18,196.5C 1.46606,171.896 -1.86728,145.563 8,117.5C 14.7559,102.072 24.5892,88.905 37.5,78C 58.2687,59.2807 81.602,44.6141 107.5,34C 150.154,17.5023 194.154,7.00227 239.5,2.5 Z"/></g>
<g><path style="opacity:1" fill="#fcfffe" d="M 235.5,26.5 C 272.168,26.3333 308.835,26.5 345.5,27C 375.21,28.1797 404.544,31.8464 433.5,38C 479.064,48.029 517.23,70.529 548,105.5C 560.973,122.4 565.306,141.4 561,162.5C 558.777,170.949 555.443,178.949 551,186.5C 527.195,215.617 497.361,236.117 461.5,248C 442.057,253.355 422.391,257.689 402.5,261C 385.51,262.721 368.51,264.388 351.5,266C 310.833,266.667 270.167,266.667 229.5,266C 191.772,264.33 154.772,258.33 118.5,248C 82.6305,236.105 52.7971,215.605 29,186.5C 12.2838,157.39 13.9505,129.39 34,102.5C 64.813,68.676 102.646,47.176 147.5,38C 176.749,32.3641 206.083,28.5308 235.5,26.5 Z"/></g>
<g><path style="opacity:1" fill="#0000ff" d="M 136.5,134.5 C 135.89,135.391 135.557,136.391 135.5,137.5C 129.324,153.213 123.657,169.213 118.5,185.5C 119.499,190.669 122.499,194.169 127.5,196C 132.155,196.499 136.821,196.666 141.5,196.5C 141.5,203.167 141.5,209.833 141.5,216.5C 116.167,216.5 90.8333,216.5 65.5,216.5C 65.3338,210.158 65.5005,203.825 66,197.5C 75.7829,199.033 82.7829,195.367 87,186.5C 97.3262,156.69 107.493,126.857 117.5,97C 116.808,93.941 115.141,91.6076 112.5,90C 108.247,89.8002 104.08,89.3002 100,88.5C 99.1913,82.2511 99.358,76.0844 100.5,70C 141.832,69.5 183.165,69.3333 224.5,69.5C 224.5,83.8333 224.5,98.1667 224.5,112.5C 221.102,112.82 217.768,112.487 214.5,111.5C 212.017,100.321 205.351,93.1539 194.5,90C 183.167,89.3333 171.833,89.3333 160.5,90C 155.645,91.505 151.812,94.3383 149,98.5C 143.931,110.208 139.764,122.208 136.5,134.5 Z"/></g>
<g><path style="opacity:1" fill="#0000ff" d="M 234.5,69.5 C 274.5,69.5 314.5,69.5 354.5,69.5C 354.5,83.8333 354.5,98.1667 354.5,112.5C 350.833,112.5 347.167,112.5 343.5,112.5C 343.737,108.59 342.904,104.923 341,101.5C 336.939,96.0955 331.772,92.2622 325.5,90C 312.167,89.3333 298.833,89.3333 285.5,90C 283.391,91.1411 281.558,92.6411 280,94.5C 275.969,105.592 272.136,116.759 268.5,128C 268.645,128.772 268.978,129.439 269.5,130C 278.866,130.683 288.199,130.349 297.5,129C 303.705,127.456 308.038,123.789 310.5,118C 314.833,117.333 319.167,117.333 323.5,118C 317.652,132.564 312.652,147.397 308.5,162.5C 303.767,162.777 299.1,162.443 294.5,161.5C 293.676,158.215 293.176,154.882 293,151.5C 292.5,151 292,150.5 291.5,150C 281.5,149.333 271.5,149.333 261.5,150C 256.282,162.985 251.448,176.152 247,189.5C 246.313,191.92 246.813,194.087 248.5,196C 280.035,201.707 307.035,193.373 329.5,171C 332.482,170.502 335.482,170.335 338.5,170.5C 338.663,172.857 338.497,175.19 338,177.5C 327.833,190.333 317.667,203.167 307.5,216C 269.168,216.5 230.835,216.667 192.5,216.5C 192.5,209.833 192.5,203.167 192.5,196.5C 197.844,196.666 203.177,196.499 208.5,196C 212,193.833 214.833,191 217,187.5C 226.799,158.436 236.799,129.436 247,100.5C 247.825,91.5013 243.658,87.8346 234.5,89.5C 234.5,82.8333 234.5,76.1667 234.5,69.5 Z"/></g>
<g><path style="opacity:1" fill="#0000ff" d="M 430.5,70.5 C 445.376,69.5227 459.876,71.1894 474,75.5C 476.069,74.7362 478.236,74.2362 480.5,74C 481.833,73.3333 482.833,72.3333 483.5,71C 487.821,70.501 492.154,70.3343 496.5,70.5C 496.936,86.4974 497.269,102.497 497.5,118.5C 492.167,118.5 486.833,118.5 481.5,118.5C 482.455,103.594 475.788,93.7608 461.5,89C 436.169,87.5825 416.003,97.0825 401,117.5C 388.592,133.39 382.592,151.39 383,171.5C 385.434,180.217 390.601,186.717 398.5,191C 414.373,199.287 428.873,197.453 442,185.5C 446.054,179.227 448.554,172.394 449.5,165C 449.507,163.188 448.84,161.688 447.5,160.5C 442.9,159.557 438.233,159.223 433.5,159.5C 433.193,153.907 433.527,148.407 434.5,143C 456.739,142.173 478.906,142.34 501,143.5C 501.667,148.5 501.667,153.5 501,158.5C 492.652,157.333 485.985,160.333 481,167.5C 474.474,183.079 469.14,199.079 465,215.5C 456.251,216.484 447.418,216.817 438.5,216.5C 438.5,214.5 438.5,212.5 438.5,210.5C 432.436,212.027 426.436,213.86 420.5,216C 384.991,217.148 362.491,200.648 353,166.5C 353.873,130.263 369.706,102.43 400.5,83C 410.062,77.5419 420.062,73.3752 430.5,70.5 Z"/></g>
<g><path style="opacity:1" fill="#fe0000" d="M 135.5,137.5 C 135.557,136.391 135.89,135.391 136.5,134.5C 151.603,128.409 166.77,122.409 182,116.5C 182.5,116.833 183,117.167 183.5,117.5C 175.092,138.644 166.425,159.644 157.5,180.5C 150.161,166.136 142.828,151.803 135.5,137.5 Z"/></g>
<g><path style="opacity:1" fill="#120bff" d="M 121.5,309.5 C 137.631,309.297 145.964,317.297 146.5,333.5C 146.21,339.581 144.543,345.247 141.5,350.5C 143.5,352.167 145.5,353.833 147.5,355.5C 146.877,357.711 145.877,359.711 144.5,361.5C 141.129,359.485 137.795,357.485 134.5,355.5C 115.253,360.548 104.586,353.215 102.5,333.5C 102.302,320.056 108.636,312.056 121.5,309.5 Z"/></g>
<g><path style="opacity:1" fill="#0f09ff" d="M 475.5,309.5 C 491.677,309.344 500.01,317.344 500.5,333.5C 499.062,352.388 489.062,359.888 470.5,356C 460.924,351.704 456.258,344.204 456.5,333.5C 456.711,320.318 463.044,312.318 475.5,309.5 Z"/></g>
<g><path style="opacity:1" fill="#0703ff" d="M 154.5,310.5 C 157.5,310.5 160.5,310.5 163.5,310.5C 163.333,321.838 163.5,333.172 164,344.5C 165.478,348.48 168.312,350.146 172.5,349.5C 176.281,350.173 179.114,348.839 181,345.5C 181.5,333.838 181.667,322.171 181.5,310.5C 184.5,310.5 187.5,310.5 190.5,310.5C 190.821,323.205 190.321,335.872 189,348.5C 185.556,354.977 180.056,357.977 172.5,357.5C 161.218,357.384 155.385,351.717 155,340.5C 154.5,330.506 154.334,320.506 154.5,310.5 Z"/></g>
<g><path style="opacity:1" fill="#0000ff" d="M 200.5,310.5 C 211.833,310.5 223.167,310.5 234.5,310.5C 234.5,313.167 234.5,315.833 234.5,318.5C 226.167,318.5 217.833,318.5 209.5,318.5C 209.5,321.833 209.5,325.167 209.5,328.5C 217.167,328.5 224.833,328.5 232.5,328.5C 232.5,331.167 232.5,333.833 232.5,336.5C 224.833,336.5 217.167,336.5 209.5,336.5C 209.5,340.5 209.5,344.5 209.5,348.5C 218.167,348.5 226.833,348.5 235.5,348.5C 235.5,351.167 235.5,353.833 235.5,356.5C 223.833,356.5 212.167,356.5 200.5,356.5C 200.5,341.167 200.5,325.833 200.5,310.5 Z"/></g>
<g><path style="opacity:1" fill="#0a05ff" d="M 243.5,310.5 C 253.545,310.205 263.545,310.705 273.5,312C 279.723,316.376 281.556,322.209 279,329.5C 276.987,333.347 273.821,335.68 269.5,336.5C 275.375,341.906 280.042,348.239 283.5,355.5C 280.554,356.655 277.554,356.821 274.5,356C 270.598,349.428 265.931,343.428 260.5,338C 257.854,337.503 255.187,337.336 252.5,337.5C 252.5,343.833 252.5,350.167 252.5,356.5C 249.5,356.5 246.5,356.5 243.5,356.5C 243.5,341.167 243.5,325.833 243.5,310.5 Z"/></g>
<g><path style="opacity:1" fill="#0000ff" d="M 289.5,310.5 C 300.833,310.5 312.167,310.5 323.5,310.5C 323.5,313.167 323.5,315.833 323.5,318.5C 315.167,318.5 306.833,318.5 298.5,318.5C 298.5,321.833 298.5,325.167 298.5,328.5C 306.167,328.5 313.833,328.5 321.5,328.5C 321.5,331.167 321.5,333.833 321.5,336.5C 313.833,336.5 306.167,336.5 298.5,336.5C 298.5,340.5 298.5,344.5 298.5,348.5C 307.167,348.5 315.833,348.5 324.5,348.5C 324.5,351.167 324.5,353.833 324.5,356.5C 312.833,356.5 301.167,356.5 289.5,356.5C 289.5,341.167 289.5,325.833 289.5,310.5 Z"/></g>
<g><path style="opacity:1" fill="#0000ff" d="M 329.5,310.5 C 341.833,310.5 354.167,310.5 366.5,310.5C 366.5,313.167 366.5,315.833 366.5,318.5C 361.833,318.5 357.167,318.5 352.5,318.5C 352.5,331.167 352.5,343.833 352.5,356.5C 349.5,356.5 346.5,356.5 343.5,356.5C 343.5,343.833 343.5,331.167 343.5,318.5C 338.833,318.5 334.167,318.5 329.5,318.5C 329.5,315.833 329.5,313.167 329.5,310.5 Z"/></g>
<g><path style="opacity:1" fill="#0f09ff" d="M 380.5,310.5 C 383.898,310.18 387.232,310.513 390.5,311.5C 395.877,326.467 401.544,341.301 407.5,356C 404.5,356.667 401.5,356.667 398.5,356C 397.167,353 395.833,350 394.5,347C 388.167,346.333 381.833,346.333 375.5,347C 374.361,350.083 373.028,353.083 371.5,356C 368.5,356.667 365.5,356.667 362.5,356C 369.188,341.104 375.188,325.937 380.5,310.5 Z"/></g>
<g><path style="opacity:1" fill="#0a05ff" d="M 412.5,310.5 C 422.545,310.205 432.545,310.705 442.5,312C 448.723,316.376 450.556,322.209 448,329.5C 445.987,333.347 442.821,335.68 438.5,336.5C 444.375,341.906 449.042,348.239 452.5,355.5C 449.554,356.655 446.554,356.821 443.5,356C 439.598,349.428 434.931,343.428 429.5,338C 426.854,337.503 424.187,337.336 421.5,337.5C 421.5,343.833 421.5,350.167 421.5,356.5C 418.5,356.5 415.5,356.5 412.5,356.5C 412.5,341.167 412.5,325.833 412.5,310.5 Z"/></g>
<g><path style="opacity:1" fill="#faf9ff" d="M 119.5,317.5 C 127.924,315.628 133.757,318.628 137,326.5C 138.127,332.755 137.46,338.755 135,344.5C 134.586,344.957 134.086,345.291 133.5,345.5C 131.278,344.222 128.944,343.222 126.5,342.5C 124.833,342.833 123.833,343.833 123.5,345.5C 124.936,346.934 126.602,348.1 128.5,349C 120.459,351.063 114.959,348.23 112,340.5C 109.354,330.921 111.854,323.254 119.5,317.5 Z"/></g>
<g><path style="opacity:1" fill="#fbfaff" d="M 473.5,317.5 C 481.96,315.645 487.793,318.645 491,326.5C 492.127,332.755 491.46,338.755 489,344.5C 484.86,349.211 479.694,350.711 473.5,349C 469.942,347.108 467.442,344.275 466,340.5C 463.354,330.921 465.854,323.254 473.5,317.5 Z"/></g>
<g><path style="opacity:1" fill="#fcfbff" d="M 252.5,318.5 C 257.844,318.334 263.177,318.501 268.5,319C 271.661,321.079 272.328,323.913 270.5,327.5C 269.975,328.192 269.308,328.692 268.5,329C 263.177,329.499 257.844,329.666 252.5,329.5C 252.5,325.833 252.5,322.167 252.5,318.5 Z"/></g>
<g><path style="opacity:1" fill="#fcfbff" d="M 421.5,318.5 C 426.844,318.334 432.177,318.501 437.5,319C 440.661,321.079 441.328,323.913 439.5,327.5C 438.975,328.192 438.308,328.692 437.5,329C 432.177,329.499 426.844,329.666 421.5,329.5C 421.5,325.833 421.5,322.167 421.5,318.5 Z"/></g>
<g><path style="opacity:1" fill="#f5f4ff" d="M 384.5,321.5 C 387.198,326.566 389.532,331.9 391.5,337.5C 387.167,338.833 382.833,338.833 378.5,337.5C 380.703,332.221 382.703,326.887 384.5,321.5 Z"/></g>
</svg>
